<?xml version="1.0" encoding="UTF-8" standalone="no"?>
<!-- Created with Inkscape (http://www.inkscape.org/) -->

<svg
   width="165.81107mm"
   height="166.86955mm"
   viewBox="0 0 165.81107 166.86955"
   version="1.1"
   id="svg5"
   inkscape:version="1.1.1 (3bf5ae0d25, 2021-09-20)"
   sodipodi:docname="sad_face.svg"
   xmlns:inkscape="http://www.inkscape.org/namespaces/inkscape"
   xmlns:sodipodi="http://sodipodi.sourceforge.net/DTD/sodipodi-0.dtd"
   xmlns="http://www.w3.org/2000/svg"
   xmlns:svg="http://www.w3.org/2000/svg">
  <sodipodi:namedview
     id="namedview7"
     pagecolor="#505050"
     bordercolor="#eeeeee"
     borderopacity="1"
     inkscape:pageshadow="0"
     inkscape:pageopacity="0"
     inkscape:pagecheckerboard="0"
     inkscape:document-units="mm"
     showgrid="false"
     inkscape:zoom="0.73406285"
     inkscape:cx="26.564483"
     inkscape:cy="342.61371"
     inkscape:window-width="1920"
     inkscape:window-height="1009"
     inkscape:window-x="-8"
     inkscape:window-y="-8"
     inkscape:window-maximized="1"
     inkscape:current-layer="layer1" />
  <defs
     id="defs2" />
  <g
     inkscape:label="Layer 1"
     inkscape:groupmode="layer"
     id="layer1"
     transform="translate(-37.898633,-73.044498)">
    <g
       id="g890"
       transform="translate(-5.9472082,-3.2439317)">
      <path
         style="fill:#fcdb56;stroke-width:0.264583"
         d="M 121.71441,235.76547 C 99.35767,234.18453 78.151908,222.33902 65.175612,204.18296 57.629871,193.62518 53.000673,181.77964 51.303034,168.68476 c -0.594141,-4.58295 -0.594141,-13.58523 0,-18.16818 2.664399,-20.55205 12.811054,-38.49894 28.899017,-51.115108 5.674537,-4.449969 14.241057,-9.178618 21.020129,-11.602939 16.91493,-6.049094 35.18204,-6.049094 52.09697,0 6.77907,2.424321 15.34559,7.15297 21.02013,11.602939 16.08796,12.616168 26.23461,30.563058 28.89901,51.115108 0.59414,4.58295 0.59414,13.58523 0,18.16818 -3.35485,25.87791 -18.69251,47.62916 -41.70409,59.14306 -9.24772,4.62712 -18.87426,7.23827 -29.36875,7.96612 -4.30606,0.29865 -5.88599,0.29434 -10.45104,-0.0285 z m 35.84469,-49.09763 c 0.34394,-0.30331 -1.65057,-3.30992 -3.2942,-4.96581 -9.32626,-9.39584 -17.92343,-12.9568 -31.22757,-12.93451 -10.38276,0.0174 -20.06868,3.06808 -28.045833,8.83333 -3.010024,2.17541 -8.069792,7.46281 -8.069792,8.43285 0,0.18937 0.854287,0.28988 2.463785,0.28988 2.426927,0 2.472502,-0.0118 3.046573,-0.78826 1.733654,-2.34489 8.411407,-7.52573 12.755407,-9.89609 1.84672,-1.00769 6.83521,-2.40553 11.49986,-3.2224 5.39395,-0.9446 13.21341,-0.47468 18.65312,1.12097 4.94698,1.45112 10.21465,4.96013 15.47813,10.31062 l 3.175,3.22748 1.71979,-0.14851 c 0.94589,-0.0817 1.77646,-0.19847 1.84573,-0.25955 z m 4.4282,-21.57707 c 0.84693,-0.92454 1.61429,-3.54651 1.76163,-6.01927 0.0737,-1.23693 0.29058,-2.72521 0.48195,-3.30729 l 0.34794,-1.05833 5.19426,-0.0716 5.19426,-0.0716 0.92939,-2.83878 c 3.84785,-11.75311 1.87143,-22.73241 -5.48189,-30.45259 -2.3509,-2.46819 -5.51033,-4.47494 -9.21064,-5.85024 -5.21606,-1.93867 -11.66017,-1.78289 -16.9305,0.40928 -2.31001,0.96084 -5.47905,2.84438 -6.92072,4.11339 -1.71283,1.5077 -4.49028,5.04969 -5.73529,7.31405 -2.18072,3.96616 -3.95015,10.78804 -3.95015,15.22948 0,3.00274 0.43531,5.43399 1.64296,9.17598 l 0.89658,2.77812 12.74519,0.0687 c 14.58032,0.0786 13.10465,-0.23422 13.40676,2.84173 0.22688,2.30989 0.91942,5.91177 1.27181,6.61458 0.63452,1.26551 1.31615,1.71979 2.58045,1.71979 0.93828,0 1.36024,-0.14143 1.77601,-0.59531 z M 83.200891,154.29761 c 11.047868,-0.17532 17.165999,-0.36768 17.381449,-0.54648 1.05465,-0.87529 2.21238,-6.81407 2.21229,-11.34838 -1.6e-4,-8.67917 -2.879438,-16.03753 -8.576198,-21.91757 -2.929141,-3.02338 -4.265557,-3.94363 -7.007651,-4.82544 -5.739884,-1.84585 -10.882619,-1.52313 -16.072006,1.00855 -2.662311,1.29883 -4.558609,3.09061 -6.696116,6.32707 -2.964719,4.48895 -5.091188,10.18803 -5.546931,14.86613 -0.321043,3.29544 0.351247,8.32916 1.701965,12.74334 0.333964,1.09141 0.683884,2.43086 0.7776,2.97657 l 0.170391,0.99218 2.303115,-0.003 c 1.266713,-0.002 9.975156,-0.12446 19.352092,-0.27327 z m -9.401198,-10.10892 -0.504029,-0.59531 0.595313,0.50403 c 0.559445,0.47366 0.715761,0.68659 0.504028,0.68659 -0.05021,0 -0.318098,-0.26789 -0.595312,-0.59531 z m 16.429304,0.0661 c 0.26339,-0.29104 0.538422,-0.52916 0.611182,-0.52916 0.07276,0 -0.08321,0.23812 -0.346599,0.52916 -0.26339,0.29105 -0.538421,0.52917 -0.611182,0.52917 -0.07276,0 0.08321,-0.23812 0.346599,-0.52917 z M 63.42537,137.24338 c 0.0054,-0.43657 0.06469,-0.58313 0.131773,-0.3257 0.06708,0.25743 0.06267,0.61462 -0.0098,0.79375 -0.07248,0.17913 -0.127363,-0.0315 -0.12197,-0.46805 z"
         id="path904" />
      <path
         style="fill:#00fcfc;stroke-width:0.264583"
         d="m 159.00205,165.43084 c -0.30127,-0.12193 -0.72823,-0.50134 -0.9488,-0.84312 -0.51231,-0.79385 -1.46225,-5.0632 -1.69529,-7.61921 -0.15279,-1.67587 -0.29046,-2.08151 -0.92022,-2.71126 -0.4073,-0.4073 -1.30028,-1.39572 -1.98439,-2.19648 l -1.24384,-1.45594 h -9.35037 -9.35037 l -0.27366,-1.01626 c -0.39891,-1.48146 -0.80507,-3.72336 -0.80507,-4.44381 v -0.62534 h 7.45131 7.45132 l 1.2539,0.80462 c 2.33069,1.4956 4.02634,1.95144 7.25909,1.95144 3.23275,0 4.9284,-0.45584 7.2591,-1.95144 l 1.25389,-0.80462 h 4.40861 c 3.51005,0 4.40861,0.0723 4.40861,0.3548 0,0.94395 -0.61997,4.85958 -0.83403,5.26759 -0.21031,0.40087 -0.65969,0.46302 -3.34757,0.46302 h -3.10465 l -0.44494,1.38907 c -0.24472,0.76398 -0.69447,2.10343 -0.99944,2.97656 -0.30497,0.87312 -0.66388,2.81361 -0.79759,4.31218 -0.44942,5.03731 -2.07496,7.18862 -4.6456,6.1482 z M 64.70791,148.26121 c -0.874085,-2.93502 -1.34832,-2.68346 5.058779,-2.68346 5.426307,0 5.63254,0.0195 6.680729,0.63259 3.351556,1.96023 8.072019,1.96023 11.423575,0 1.027195,-0.60078 1.310953,-0.63259 5.643417,-0.63259 h 4.56184 l -0.136829,0.72761 c -0.07526,0.40018 -0.212344,1.41221 -0.304644,2.24895 l -0.167815,1.52136 H 81.357621 65.24828 Z"
         id="path902" />
      <path
         style="fill:#a0a0a0;stroke-width:0.264583"
         d="m 121.12414,243.02565 c 0.25743,-0.0671 0.61461,-0.0627 0.79375,0.01 0.17913,0.0725 -0.0315,0.12736 -0.46806,0.12197 -0.43656,-0.005 -0.58313,-0.0647 -0.32569,-0.13177 z m 10.58333,0 c 0.25743,-0.0671 0.61462,-0.0627 0.79375,0.01 0.17913,0.0725 -0.0315,0.12736 -0.46806,0.12197 -0.43656,-0.005 -0.58312,-0.0647 -0.32569,-0.13177 z m -13.61454,-0.26197 c 0.19099,-0.0764 0.4192,-0.067 0.50712,0.0209 0.0879,0.0879 -0.0683,0.15046 -0.34727,0.13897 -0.30822,-0.0127 -0.37092,-0.0754 -0.15985,-0.15985 z m 16.93333,0 c 0.191,-0.0764 0.4192,-0.067 0.50712,0.0209 0.0879,0.0879 -0.0683,0.15046 -0.34726,0.13897 -0.30823,-0.0127 -0.37092,-0.0754 -0.15986,-0.15985 z M 73.923372,224.22515 c -0.329107,-0.41965 -0.319749,-0.42901 0.0999,-0.0999 0.44073,0.34564 0.580888,0.56292 0.363125,0.56292 -0.05494,0 -0.2633,-0.20836 -0.463021,-0.46302 z m 105.073328,0.36312 c 0,-0.0549 0.20836,-0.2633 0.46302,-0.46302 0.41965,-0.32911 0.42901,-0.31975 0.0999,0.0999 -0.34564,0.44073 -0.56292,0.58088 -0.56292,0.36312 z M 72.071289,222.63765 c -0.329107,-0.41965 -0.319749,-0.42901 0.0999,-0.0999 0.44073,0.34564 0.580887,0.56292 0.363125,0.56292 -0.05494,0 -0.2633,-0.20836 -0.463021,-0.46302 z m 108.777501,0.36312 c 0,-0.0549 0.20836,-0.2633 0.46302,-0.46302 0.41964,-0.32911 0.429,-0.31975 0.0999,0.0999 -0.34564,0.44073 -0.56291,0.58088 -0.56291,0.36312 z m -112.720144,-4.06729 -1.712148,-1.78594 1.785937,1.71215 c 0.982266,0.94168 1.785937,1.74535 1.785937,1.78594 0,0.19474 -0.269409,-0.0533 -1.859726,-1.71215 z m 116.953474,0.0661 c 0.93748,-0.94589 1.76404,-1.7198 1.8368,-1.7198 0.0728,0 -0.63474,0.77391 -1.57222,1.7198 -0.93747,0.94588 -1.76403,1.71979 -1.83679,1.71979 -0.0728,0 0.63473,-0.77391 1.57221,-1.71979 z m -120.807428,-4.16719 -0.504028,-0.59531 0.595313,0.50402 c 0.559447,0.47367 0.715761,0.6866 0.504028,0.6866 -0.05021,0 -0.318097,-0.26789 -0.595313,-0.59531 z m 124.643888,0.0661 c 0.26339,-0.29104 0.53842,-0.52916 0.61118,-0.52916 0.0728,0 -0.0832,0.23812 -0.3466,0.52916 -0.26339,0.29105 -0.53842,0.52917 -0.61118,0.52917 -0.0728,0 0.0832,-0.23812 0.3466,-0.52917 z M 62.810874,213.11265 c -0.329108,-0.41965 -0.31975,-0.42901 0.09989,-0.0999 0.44073,0.34564 0.580888,0.56292 0.363126,0.56292 -0.05494,0 -0.263301,-0.20836 -0.46302,-0.46302 z m 127.298326,0.36312 c 0,-0.0549 0.20836,-0.2633 0.46302,-0.46302 0.41965,-0.32911 0.42901,-0.31975 0.0999,0.0999 -0.34564,0.44073 -0.56292,0.58088 -0.56292,0.36312 z M 44.609261,172.41091 c 0.0127,-0.30822 0.07539,-0.37092 0.159853,-0.15985 0.07643,0.19099 0.06703,0.4192 -0.02089,0.50712 -0.08792,0.0879 -0.150452,-0.0684 -0.138964,-0.34727 z m 164.041669,0 c 0.0127,-0.30822 0.0754,-0.37092 0.15985,-0.15985 0.0764,0.19099 0.067,0.4192 -0.0209,0.50712 -0.0879,0.0879 -0.15045,-0.0684 -0.13896,-0.34727 z M 44.344678,170.55883 c 0.0127,-0.30823 0.07539,-0.37092 0.159852,-0.15985 0.07643,0.19099 0.06703,0.4192 -0.02089,0.50711 -0.08792,0.0879 -0.150453,-0.0684 -0.138964,-0.34726 z m 164.570832,0 c 0.0127,-0.30823 0.0754,-0.37092 0.15985,-0.15985 0.0764,0.19099 0.067,0.4192 -0.0209,0.50711 -0.0879,0.0879 -0.15045,-0.0684 -0.13896,-0.34726 z M 44.080094,168.17758 c 0.0127,-0.30823 0.07539,-0.37092 0.159853,-0.15985 0.07643,0.19099 0.06703,0.4192 -0.02089,0.50711 -0.08792,0.0879 -0.150453,-0.0684 -0.138965,-0.34726 z m 165.099996,0 c 0.0127,-0.30823 0.0754,-0.37092 0.15985,-0.15985 0.0764,0.19099 0.067,0.4192 -0.0209,0.50711 -0.0879,0.0879 -0.15046,-0.0684 -0.13897,-0.34726 z M 43.846203,165.02463 c 0.0054,-0.43657 0.06469,-0.58313 0.131774,-0.3257 0.06708,0.25743 0.06267,0.61462 -0.0098,0.79375 -0.07248,0.17913 -0.127362,-0.0315 -0.12197,-0.46805 z m 117.158837,0.55747 c 0,-0.0572 0.18477,-0.17489 0.41061,-0.26155 0.23546,-0.0904 0.34167,-0.046 0.24897,0.10398 -0.15538,0.25141 -0.65958,0.37186 -0.65958,0.15757 z m 48.47033,-0.55747 c 0.005,-0.43657 0.0647,-0.58313 0.13177,-0.3257 0.0671,0.25743 0.0627,0.61462 -0.01,0.79375 -0.0725,0.17913 -0.12736,-0.0315 -0.12197,-0.46805 z m -47.2627,-0.47444 c 0.0994,-0.26093 0.24731,-0.40778 0.32877,-0.32631 0.0815,0.0815 1.7e-4,0.29495 -0.18065,0.47443 -0.26131,0.25936 -0.2917,0.22897 -0.14812,-0.14812 z m -5.15549,-2.45803 c 0.0127,-0.30822 0.0754,-0.37092 0.15985,-0.15985 0.0764,0.19099 0.067,0.4192 -0.0209,0.50712 -0.0879,0.0879 -0.15045,-0.0683 -0.13896,-0.34727 z m 6.35,-0.79375 c 0.0127,-0.30822 0.0754,-0.37092 0.15985,-0.15985 0.0764,0.19099 0.067,0.4192 -0.0209,0.50712 -0.0879,0.0879 -0.15045,-0.0684 -0.13896,-0.34727 z M 43.846203,154.44129 c 0.0054,-0.43656 0.06469,-0.58312 0.131774,-0.32569 0.06708,0.25743 0.06267,0.61462 -0.0098,0.79375 -0.07248,0.17913 -0.127362,-0.0315 -0.12197,-0.46806 z m 165.629167,0 c 0.005,-0.43656 0.0647,-0.58312 0.13177,-0.32569 0.0671,0.25743 0.0627,0.61462 -0.01,0.79375 -0.0725,0.17913 -0.12736,-0.0315 -0.12197,-0.46806 z M 44.080094,151.24425 c 0.0127,-0.30823 0.07539,-0.37092 0.159853,-0.15986 0.07643,0.191 0.06703,0.4192 -0.02089,0.50712 -0.08792,0.0879 -0.150453,-0.0684 -0.138965,-0.34726 z m 165.099996,0 c 0.0127,-0.30823 0.0754,-0.37092 0.15985,-0.15986 0.0764,0.191 0.067,0.4192 -0.0209,0.50712 -0.0879,0.0879 -0.15046,-0.0684 -0.13897,-0.34726 z M 44.344678,148.863 c 0.0127,-0.30823 0.07539,-0.37092 0.159852,-0.15986 0.07643,0.191 0.06703,0.4192 -0.02089,0.50712 -0.08792,0.0879 -0.150453,-0.0684 -0.138964,-0.34726 z m 164.570832,0 c 0.0127,-0.30823 0.0754,-0.37092 0.15985,-0.15986 0.0764,0.191 0.067,0.4192 -0.0209,0.50712 -0.0879,0.0879 -0.15045,-0.0684 -0.13896,-0.34726 z M 44.609261,147.01091 c 0.0127,-0.30822 0.07539,-0.37092 0.159853,-0.15985 0.07643,0.19099 0.06703,0.4192 -0.02089,0.50712 -0.08792,0.0879 -0.150452,-0.0684 -0.138964,-0.34727 z m 164.041669,0 c 0.0127,-0.30822 0.0754,-0.37092 0.15985,-0.15985 0.0764,0.19099 0.067,0.4192 -0.0209,0.50712 -0.0879,0.0879 -0.15045,-0.0684 -0.13896,-0.34727 z m -35.71875,-8.73125 c 0.0127,-0.30822 0.0754,-0.37092 0.15985,-0.15985 0.0764,0.19099 0.067,0.4192 -0.0209,0.50712 -0.0879,0.0879 -0.15045,-0.0683 -0.13896,-0.34727 z m -0.26459,-2.11666 c 0.0127,-0.30823 0.0754,-0.37092 0.15985,-0.15986 0.0764,0.191 0.067,0.4192 -0.0209,0.50712 -0.0879,0.0879 -0.15046,-0.0683 -0.13897,-0.34726 z m -32.30005,-12.38098 c 0,-0.0549 0.20836,-0.2633 0.46302,-0.46302 0.41964,-0.32911 0.429,-0.31975 0.0999,0.0999 -0.34564,0.44073 -0.56291,0.58089 -0.56291,0.36312 z M 62.580039,106.58411 c 0,-0.0549 0.20836,-0.2633 0.463021,-0.46302 0.419644,-0.32911 0.429002,-0.31975 0.0999,0.0999 -0.345644,0.44073 -0.562916,0.58089 -0.562916,0.36313 z m 127.760001,-0.36313 c -0.32911,-0.41964 -0.31975,-0.429 0.0999,-0.0999 0.44073,0.34564 0.58089,0.56291 0.36313,0.56291 -0.0549,0 -0.2633,-0.20836 -0.46302,-0.46302 z M 64.299831,104.56734 c 0.263389,-0.29105 0.53842,-0.52917 0.611181,-0.52917 0.07276,0 -0.08321,0.23812 -0.346598,0.52917 -0.263389,0.29104 -0.53842,0.52916 -0.611181,0.52916 -0.07276,0 0.08321,-0.23812 0.346598,-0.52916 z m 124.593609,-0.0662 -0.50403,-0.59531 0.59531,0.50403 c 0.32743,0.27721 0.59532,0.5451 0.59532,0.59531 0,0.21173 -0.21294,0.0554 -0.6866,-0.50403 z m -120.757151,-4.0349 c 0.937477,-0.945881 1.764035,-1.719787 1.836796,-1.719787 0.07276,0 -0.634736,0.773906 -1.572213,1.719787 -0.937477,0.94589 -1.764036,1.7198 -1.836796,1.7198 -0.07276,0 0.634735,-0.77391 1.572213,-1.7198 z m 116.938191,-0.0661 -1.71215,-1.785939 1.78594,1.712149 c 0.98226,0.94168 1.78593,1.74535 1.78593,1.78594 0,0.19473 -0.26941,-0.0533 -1.85972,-1.71215 z M 71.840456,97.059108 c 0,-0.05494 0.208359,-0.263302 0.463021,-0.463021 0.419645,-0.329108 0.429003,-0.319749 0.0999,0.0999 -0.345644,0.440729 -0.562917,0.580887 -0.562917,0.363126 z M 181.07962,96.695982 c -0.32911,-0.419644 -0.31975,-0.429003 0.0999,-0.0999 0.44073,0.345643 0.58088,0.562916 0.36312,0.562916 -0.0549,0 -0.2633,-0.20836 -0.46302,-0.463021 z M 73.692539,95.471608 c 0,-0.05494 0.208359,-0.263302 0.463021,-0.463021 0.419645,-0.329108 0.429003,-0.319749 0.0999,0.09989 -0.345644,0.440729 -0.562917,0.580887 -0.562917,0.363126 z M 179.22754,95.108482 c -0.32911,-0.419644 -0.31975,-0.429003 0.0999,-0.09989 0.25466,0.199719 0.46302,0.408079 0.46302,0.463021 0,0.217761 -0.21727,0.0776 -0.56291,-0.363126 z M 118.09293,76.605346 c 0.19099,-0.07643 0.4192,-0.06703 0.50712,0.02089 0.0879,0.08792 -0.0683,0.150453 -0.34727,0.138964 -0.30822,-0.0127 -0.37092,-0.07539 -0.15985,-0.159852 z m 16.93333,0 c 0.191,-0.07643 0.4192,-0.06703 0.50712,0.02089 0.0879,0.08792 -0.0683,0.150453 -0.34726,0.138964 -0.30823,-0.0127 -0.37092,-0.07539 -0.15986,-0.159852 z m -13.90212,-0.267197 c 0.25743,-0.06708 0.61461,-0.06267 0.79375,0.0098 0.17913,0.07248 -0.0315,0.127362 -0.46806,0.12197 -0.43656,-0.0054 -0.58313,-0.06469 -0.32569,-0.131774 z m 10.58333,0 c 0.25743,-0.06708 0.61462,-0.06267 0.79375,0.0098 0.17913,0.07248 -0.0315,0.127362 -0.46806,0.12197 -0.43656,-0.0054 -0.58312,-0.06469 -0.32569,-0.131774 z"
         id="path900" />
      <path
         style="fill:#aa9339;stroke-width:0.264583"
         d="m 123.50035,235.88286 c 0.25466,-0.0665 0.67138,-0.0665 0.92604,0 0.25466,0.0666 0.0463,0.12101 -0.46302,0.12101 -0.50932,0 -0.71768,-0.0545 -0.46302,-0.12101 z m 6.61458,0 c 0.25467,-0.0665 0.67138,-0.0665 0.92605,0 0.25466,0.0666 0.0463,0.12101 -0.46303,0.12101 -0.50932,0 -0.71768,-0.0545 -0.46302,-0.12101 z m -10.16992,-0.26293 c 0.191,-0.0764 0.4192,-0.067 0.50712,0.0209 0.0879,0.0879 -0.0683,0.15046 -0.34726,0.13897 -0.30823,-0.0127 -0.37092,-0.0754 -0.15986,-0.15985 z m 14.2875,0 c 0.191,-0.0764 0.4192,-0.067 0.50712,0.0209 0.0879,0.0879 -0.0684,0.15046 -0.34726,0.13897 -0.30823,-0.0127 -0.37092,-0.0754 -0.15986,-0.15985 z m -59.501664,-20.39062 -0.641432,-0.7276 0.727604,0.64143 c 0.680056,0.59952 0.84894,0.81378 0.641432,0.81378 -0.04739,0 -0.374814,-0.32742 -0.727604,-0.72761 z m 104.795024,0.0661 c 0.34178,-0.3638 0.68094,-0.66146 0.7537,-0.66146 0.0728,0 -0.14734,0.29766 -0.48912,0.66146 -0.34177,0.3638 -0.68094,0.66146 -0.7537,0.66146 -0.0728,0 0.14734,-0.29766 0.48912,-0.66146 z m -108.234607,-3.50573 -0.641432,-0.7276 0.727604,0.64143 c 0.680056,0.59951 0.848939,0.81377 0.641432,0.81377 -0.04739,0 -0.374814,-0.32742 -0.727604,-0.7276 z m 111.674187,0.0662 c 0.34178,-0.36381 0.68094,-0.66146 0.7537,-0.66146 0.0728,0 -0.14734,0.29765 -0.48911,0.66146 -0.34178,0.3638 -0.68094,0.66145 -0.7537,0.66145 -0.0728,0 0.14734,-0.29765 0.48911,-0.66145 z M 68.896289,209.1439 c -0.329106,-0.41965 -0.319748,-0.42901 0.0999,-0.0999 0.254661,0.19972 0.463021,0.40808 0.463021,0.46302 0,0.21776 -0.217273,0.0776 -0.562917,-0.36312 z m 116.185831,0.36312 c 0,-0.0549 0.20836,-0.2633 0.46302,-0.46302 0.41965,-0.32911 0.429,-0.31975 0.0999,0.0999 -0.34565,0.44073 -0.56292,0.58088 -0.56292,0.36312 z m -31.0224,-22.56491 c 0.18191,-0.0734 0.47956,-0.0734 0.66146,0 0.1819,0.0734 0.0331,0.13345 -0.33073,0.13345 -0.3638,0 -0.51263,-0.0601 -0.33073,-0.13345 z m -0.0786,-5.44717 -1.04588,-1.12448 1.12447,1.04588 c 1.04576,0.97267 1.24607,1.20308 1.04589,1.20308 -0.0432,0 -0.54924,-0.50602 -1.12448,-1.12448 z m -5.70984,-0.13229 c -0.32911,-0.41965 -0.31975,-0.42901 0.0999,-0.0999 0.25466,0.19972 0.46302,0.40808 0.46302,0.46302 0,0.21776 -0.21727,0.0776 -0.56291,-0.36312 z m -27.53253,-9.50731 c 0.191,-0.0764 0.4192,-0.067 0.50712,0.0209 0.0879,0.0879 -0.0683,0.15045 -0.34726,0.13897 -0.30823,-0.0127 -0.37092,-0.0754 -0.15986,-0.15986 z m 4.74597,0.006 c 0.1819,-0.0734 0.47955,-0.0734 0.66145,0 0.1819,0.0734 0.0331,0.13345 -0.33073,0.13345 -0.3638,0 -0.51263,-0.0601 -0.33072,-0.13345 z m -4.74597,-3.18051 c 0.191,-0.0764 0.4192,-0.067 0.50712,0.0209 0.0879,0.0879 -0.0683,0.15046 -0.34726,0.13897 -0.30823,-0.0127 -0.37092,-0.0754 -0.15986,-0.15985 z m -70.01339,-5.77238 c 0.0054,-0.43656 0.06469,-0.58313 0.131773,-0.32569 0.06708,0.25743 0.06267,0.61461 -0.0098,0.79375 -0.07248,0.17913 -0.127363,-0.0315 -0.121971,-0.46806 z m 152.92916,0 c 0.005,-0.43656 0.0647,-0.58313 0.13178,-0.32569 0.0671,0.25743 0.0627,0.61461 -0.01,0.79375 -0.0725,0.17913 -0.12736,-0.0315 -0.12197,-0.46806 z M 50.72537,156.29338 c 0.0054,-0.43657 0.06469,-0.58313 0.131773,-0.3257 0.06708,0.25743 0.06267,0.61462 -0.0098,0.79375 -0.07248,0.17913 -0.127363,-0.0315 -0.121971,-0.46805 z m 152.92916,0 c 0.005,-0.43657 0.0647,-0.58313 0.13178,-0.3257 0.0671,0.25743 0.0627,0.61462 -0.01,0.79375 -0.0725,0.17913 -0.12736,-0.0315 -0.12197,-0.46805 z M 69.664636,154.37951 c 0.622311,-0.0559 1.574811,-0.0551 2.116667,0.002 0.541856,0.0569 0.03269,0.10259 -1.131472,0.10163 -1.164167,-0.001 -1.607505,-0.0475 -0.985195,-0.10337 z m 19.314583,-0.26458 c 0.622311,-0.0559 1.574811,-0.0551 2.116667,0.002 0.541856,0.0568 0.03269,0.10258 -1.131472,0.10162 -1.164167,-0.001 -1.607505,-0.0475 -0.985195,-0.10337 z m -15.749701,-3.97297 c 4.474766,-0.0407 11.797109,-0.0407 16.271875,0 4.474765,0.0407 0.813594,0.0739 -8.135937,0.0739 -8.949532,0 -12.610703,-0.0333 -8.135938,-0.0739 z m 24.891508,-7.60692 c 0.0011,-1.01864 0.049,-1.40294 0.106272,-0.85399 0.05727,0.54895 0.05631,1.38238 -0.0021,1.85208 -0.05845,0.4697 -0.105312,0.0206 -0.104137,-0.99809 z m -34.726349,0.50712 c 0.0127,-0.30822 0.07539,-0.37092 0.159853,-0.15985 0.07643,0.19099 0.06703,0.4192 -0.02089,0.50712 -0.08792,0.0879 -0.150453,-0.0684 -0.138964,-0.34727 z m 114.361093,-3.15295 c 0.002,-0.87312 0.0509,-1.19841 0.10977,-0.72287 0.0589,0.47555 0.0577,1.18993 -0.003,1.5875 -0.0604,0.39758 -0.10855,0.008 -0.10707,-0.86463 z m -119.123593,-0.022 c 0.0127,-0.30823 0.07539,-0.37092 0.159853,-0.15985 0.07643,0.19099 0.06703,0.41919 -0.02089,0.50712 -0.08792,0.0879 -0.150453,-0.0684 -0.138964,-0.34727 z m 4.793193,-3.94671 c 0.0054,-0.43656 0.06469,-0.58313 0.131773,-0.32569 0.06708,0.25743 0.06267,0.61462 -0.0098,0.79375 -0.07248,0.17913 -0.127363,-0.0315 -0.12197,-0.46806 z m 72.44425,-14.55208 c 0.34178,-0.3638 0.68094,-0.66146 0.7537,-0.66146 0.0728,0 -0.14734,0.29766 -0.48912,0.66146 -0.34177,0.3638 -0.68094,0.66146 -0.7537,0.66146 -0.0728,0 0.14735,-0.29766 0.48912,-0.66146 z m -56.15781,-6.9336 c 0.327422,-0.0631 0.863203,-0.0631 1.190625,0 0.327422,0.0631 0.05953,0.11466 -0.595313,0.11466 -0.654843,0 -0.922734,-0.0516 -0.595312,-0.11466 z m -11.046354,-4.14651 c 0,-0.0549 0.208359,-0.2633 0.463021,-0.46302 0.419645,-0.32911 0.429003,-0.31975 0.0999,0.0999 -0.345644,0.44073 -0.562917,0.58089 -0.562917,0.36312 z m 116.647494,-0.36312 c -0.3291,-0.41965 -0.31975,-0.42901 0.0999,-0.0999 0.25466,0.19972 0.46302,0.40808 0.46302,0.46302 0,0.21777 -0.21727,0.0776 -0.56292,-0.36312 z M 71.311289,107.34546 c 0.341776,-0.3638 0.68094,-0.66146 0.7537,-0.66146 0.07276,0 -0.147341,0.29766 -0.489117,0.66146 -0.341775,0.3638 -0.680939,0.66146 -0.7537,0.66146 -0.07276,0 0.147342,-0.29766 0.489117,-0.66146 z m 111.634141,-0.0662 -0.64143,-0.7276 0.7276,0.64143 c 0.40018,0.35279 0.7276,0.68021 0.7276,0.72761 0,0.2075 -0.21426,0.0386 -0.81377,-0.64144 z M 74.750872,103.90588 c 0.341776,-0.3638 0.68094,-0.66146 0.7537,-0.66146 0.07276,0 -0.147341,0.29766 -0.489116,0.66146 -0.341776,0.3638 -0.68094,0.66146 -0.7537,0.66146 -0.07276,0 0.147341,-0.29766 0.489116,-0.66146 z m 104.754968,-0.0661 -0.64143,-0.7276 0.72761,0.64143 c 0.40018,0.35279 0.7276,0.68021 0.7276,0.7276 0,0.20751 -0.21426,0.0386 -0.81378,-0.64143 z M 119.94501,83.484512 c 0.191,-0.07643 0.4192,-0.06703 0.50712,0.02089 0.0879,0.08792 -0.0683,0.150453 -0.34726,0.138965 -0.30823,-0.0127 -0.37092,-0.07539 -0.15986,-0.159853 z m 14.2875,0 c 0.191,-0.07643 0.4192,-0.06703 0.50712,0.02089 0.0879,0.08792 -0.0684,0.150453 -0.34726,0.138965 -0.30823,-0.0127 -0.37092,-0.07539 -0.15986,-0.159853 z m -10.73216,-0.266227 c 0.25466,-0.06655 0.67138,-0.06655 0.92604,0 0.25466,0.06655 0.0463,0.121 -0.46302,0.121 -0.50932,0 -0.71768,-0.05445 -0.46302,-0.121 z m 6.61458,0 c 0.25467,-0.06655 0.67138,-0.06655 0.92605,0 0.25466,0.06655 0.0463,0.121 -0.46303,0.121 -0.50932,0 -0.71768,-0.05445 -0.46302,-0.121 z"
         id="path898" />
      <path
         style="fill:#88762e;stroke-width:0.264583"
         d="m 122.30973,235.89002 c 0.1819,-0.0734 0.47955,-0.0734 0.66145,0 0.1819,0.0734 0.0331,0.13345 -0.33073,0.13345 -0.3638,0 -0.51263,-0.06 -0.33072,-0.13345 z m 9.26041,0 c 0.1819,-0.0734 0.47956,-0.0734 0.66146,0 0.1819,0.0734 0.0331,0.13345 -0.33073,0.13345 -0.3638,0 -0.51263,-0.06 -0.33073,-0.13345 z m -55.653781,-19.47008 -0.504028,-0.59531 0.595312,0.50402 c 0.327422,0.27722 0.595313,0.54511 0.595313,0.59532 0,0.21173 -0.212934,0.0554 -0.686597,-0.50403 z m 102.418891,0.0661 c 0.26339,-0.29104 0.53842,-0.52916 0.61118,-0.52916 0.0728,0 -0.0832,0.23812 -0.3466,0.52916 -0.26339,0.29105 -0.53842,0.52917 -0.61118,0.52917 -0.0728,0 0.0832,-0.23812 0.3466,-0.52917 z m -108.239724,-5.88698 -0.504029,-0.59531 0.595313,0.50403 c 0.559446,0.47366 0.715761,0.6866 0.504029,0.6866 -0.05021,0 -0.318098,-0.26789 -0.595313,-0.59532 z m 114.060554,0.0661 c 0.26339,-0.29104 0.53842,-0.52917 0.61118,-0.52917 0.0728,0 -0.0832,0.23813 -0.3466,0.52917 -0.26339,0.29104 -0.53842,0.52917 -0.61118,0.52917 -0.0728,0 0.0832,-0.23813 0.3466,-0.52917 z m -97.035937,-24.5168 c 0.181901,-0.0734 0.479557,-0.0734 0.661458,0 0.181901,0.0734 0.03307,0.13345 -0.330729,0.13345 -0.363802,0 -0.51263,-0.0601 -0.330729,-0.13345 z m 8.797396,-4.15801 c 0,-0.0549 0.208359,-0.2633 0.46302,-0.46302 0.419645,-0.3291 0.429004,-0.31974 0.0999,0.0999 -0.345644,0.44073 -0.562917,0.58089 -0.562917,0.36312 z m 31.700391,-13.04542 c 0.19099,-0.0764 0.4192,-0.067 0.50712,0.0209 0.0879,0.0879 -0.0683,0.15046 -0.34727,0.13897 -0.30822,-0.0127 -0.37092,-0.0754 -0.15985,-0.15985 z m -6.10195,-0.25907 c 0.1819,-0.0734 0.47955,-0.0734 0.66145,0 0.1819,0.0734 0.0331,0.13345 -0.33073,0.13345 -0.3638,0 -0.51263,-0.0601 -0.33072,-0.13345 z m -70.556719,-1.30203 c 0.0127,-0.30823 0.07539,-0.37092 0.159852,-0.15985 0.07643,0.19099 0.06703,0.4192 -0.02089,0.50711 -0.08792,0.0879 -0.150453,-0.0683 -0.138965,-0.34726 z m 152.399999,0 c 0.0127,-0.30823 0.0754,-0.37092 0.15985,-0.15985 0.0764,0.19099 0.067,0.4192 -0.0209,0.50711 -0.0879,0.0879 -0.15045,-0.0683 -0.13896,-0.34726 z M 50.715566,164.09858 c 0,-0.3638 0.06005,-0.51263 0.133452,-0.33072 0.0734,0.1819 0.0734,0.47955 0,0.66145 -0.0734,0.1819 -0.133452,0.0331 -0.133452,-0.33073 z m 152.929164,0 c 0,-0.3638 0.06,-0.51263 0.13345,-0.33072 0.0734,0.1819 0.0734,0.47955 0,0.66145 -0.0734,0.1819 -0.13345,0.0331 -0.13345,-0.33073 z M 50.715566,155.10275 c 0,-0.3638 0.06005,-0.51263 0.133452,-0.33073 0.0734,0.1819 0.0734,0.47956 0,0.66146 -0.0734,0.1819 -0.133452,0.0331 -0.133452,-0.33073 z m 152.929164,0 c 0,-0.3638 0.06,-0.51263 0.13345,-0.33073 0.0734,0.1819 0.0734,0.47956 0,0.66146 -0.0734,0.1819 -0.13345,0.0331 -0.13345,-0.33073 z M 65.695887,154.37951 c 0.62231,-0.0559 1.57481,-0.0551 2.116667,0.002 0.541856,0.0569 0.03269,0.10259 -1.131473,0.10163 -1.164167,-0.001 -1.607504,-0.0475 -0.985194,-0.10337 z m 70.919633,-0.004 c 3.53894,-0.0417 9.25394,-0.0417 12.7,1e-4 3.44606,0.0418 0.55056,0.0759 -6.43444,0.0758 -6.985,-5e-5 -9.8045,-0.0342 -6.26556,-0.0759 z m 30.55482,8e-4 c 1.42639,-0.0477 3.68858,-0.0475 5.02709,5.3e-4 1.3385,0.0479 0.17146,0.0869 -2.59343,0.0867 -2.7649,-2.5e-4 -3.86005,-0.0395 -2.43366,-0.0871 z m -82.034572,-0.25987 c 0.545703,-0.0571 1.438672,-0.0571 1.984375,0 0.545703,0.0571 0.09922,0.10379 -0.992188,0.10379 -1.091406,0 -1.53789,-0.0467 -0.992187,-0.10379 z m -34.176507,-2.34285 c 0.0127,-0.30822 0.07539,-0.37092 0.159852,-0.15985 0.07643,0.19099 0.06703,0.4192 -0.02089,0.50712 -0.08792,0.0879 -0.150453,-0.0683 -0.138965,-0.34727 z m 152.399999,0 c 0.0127,-0.30822 0.0754,-0.37092 0.15985,-0.15985 0.0764,0.19099 0.067,0.4192 -0.0209,0.50712 -0.0879,0.0879 -0.15045,-0.0683 -0.13896,-0.34727 z M 98.055094,144.62966 c 0.0127,-0.30822 0.07539,-0.37092 0.159851,-0.15985 0.07643,0.19099 0.06703,0.4192 -0.02088,0.50712 -0.08792,0.0879 -0.150453,-0.0684 -0.138964,-0.34727 z m 79.374996,-0.79375 c 0.0127,-0.30822 0.0754,-0.37092 0.15985,-0.15985 0.0764,0.19099 0.067,0.4192 -0.0209,0.50712 -0.0879,0.0879 -0.15046,-0.0683 -0.13897,-0.34727 z m -118.533329,-1.5875 c 0.01269,-0.30822 0.07539,-0.37092 0.159852,-0.15985 0.07643,0.19099 0.06703,0.4192 -0.02089,0.50712 -0.08792,0.0879 -0.150453,-0.0683 -0.138964,-0.34727 z m 39.189025,-2.09462 c 0.0054,-0.43656 0.06469,-0.58312 0.131773,-0.32569 0.06708,0.25743 0.06267,0.61462 -0.0098,0.79375 -0.07248,0.17913 -0.127363,-0.0315 -0.12197,-0.46806 z m 4.467224,-0.55121 c 0.0127,-0.30823 0.0754,-0.37092 0.15985,-0.15985 0.0764,0.19099 0.067,0.41919 -0.0209,0.50711 -0.0879,0.0879 -0.15046,-0.0683 -0.13897,-0.34726 z m 34.50724,-19.42483 c 0.26339,-0.29104 0.53842,-0.52916 0.61118,-0.52916 0.0728,0 -0.0832,0.23812 -0.3466,0.52916 -0.26339,0.29104 -0.53842,0.52917 -0.61118,0.52917 -0.0728,0 0.0832,-0.23813 0.3466,-0.52917 z m 13.57643,-6.00157 c 0.19099,-0.0764 0.4192,-0.067 0.50712,0.0209 0.0879,0.0879 -0.0684,0.15045 -0.34727,0.13896 -0.30822,-0.0127 -0.37092,-0.0754 -0.15985,-0.15985 z m 5.29166,0 c 0.191,-0.0764 0.41921,-0.067 0.50712,0.0209 0.0879,0.0879 -0.0684,0.15045 -0.34726,0.13896 -0.30823,-0.0127 -0.37092,-0.0754 -0.15986,-0.15985 z m -85.807676,-5.64009 c 0.26339,-0.29105 0.538422,-0.52917 0.611182,-0.52917 0.07276,0 -0.08321,0.23812 -0.346599,0.52917 -0.26339,0.29104 -0.538421,0.52916 -0.611182,0.52916 -0.07276,0 0.08321,-0.23812 0.346599,-0.52916 z m 114.010276,-0.0662 -0.50403,-0.59531 0.59531,0.50403 c 0.32743,0.27721 0.59532,0.5451 0.59532,0.59531 0,0.21173 -0.21294,0.0554 -0.6866,-0.50403 z M 75.941497,102.71525 c 0.26339,-0.29104 0.538422,-0.52916 0.611183,-0.52916 0.07276,0 -0.08321,0.23812 -0.346599,0.52916 -0.26339,0.29104 -0.538422,0.52917 -0.611183,0.52917 -0.07276,0 0.08321,-0.23813 0.346599,-0.52917 z m 102.368613,-0.0661 -0.50403,-0.59532 0.59531,0.50403 c 0.32742,0.27722 0.59531,0.54511 0.59531,0.59532 0,0.21173 -0.21293,0.0554 -0.68659,-0.50403 z M 122.30973,83.225441 c 0.1819,-0.0734 0.47955,-0.0734 0.66145,0 0.1819,0.0734 0.0331,0.133452 -0.33073,0.133452 -0.3638,0 -0.51263,-0.06005 -0.33072,-0.133452 z m 9.26041,0 c 0.1819,-0.0734 0.47956,-0.0734 0.66146,0 0.1819,0.0734 0.0331,0.133452 -0.33073,0.133452 -0.3638,0 -0.51263,-0.06005 -0.33073,-0.133452 z"
         id="path896" />
      <path
         style="fill:#5e5e5e;stroke-width:0.264583"
         d="m 122.57739,243.02187 c 0.32912,-0.0633 0.80537,-0.0609 1.05834,0.005 0.25296,0.0662 -0.0163,0.118 -0.5984,0.11506 -0.58208,-0.003 -0.78905,-0.0571 -0.45994,-0.1204 z m 7.40834,0 c 0.32911,-0.0633 0.80536,-0.0609 1.05833,0.005 0.25297,0.0662 -0.0163,0.118 -0.5984,0.11506 -0.58208,-0.003 -0.78905,-0.0571 -0.45993,-0.1204 z m -11.09905,-0.25819 c 0.19099,-0.0764 0.4192,-0.067 0.50712,0.0209 0.0879,0.0879 -0.0683,0.15046 -0.34727,0.13897 -0.30822,-0.0127 -0.37092,-0.0754 -0.15985,-0.15985 z m 15.34583,0 c 0.191,-0.0764 0.4192,-0.067 0.50712,0.0209 0.0879,0.0879 -0.0684,0.15046 -0.34726,0.13897 -0.30823,-0.0127 -0.37092,-0.0754 -0.15986,-0.15985 z m -17.72708,-0.26459 c 0.19099,-0.0764 0.4192,-0.067 0.50712,0.0209 0.0879,0.0879 -0.0684,0.15045 -0.34727,0.13896 -0.30822,-0.0127 -0.37092,-0.0754 -0.15985,-0.15985 z m 20.10833,0 c 0.191,-0.0764 0.4192,-0.067 0.50712,0.0209 0.0879,0.0879 -0.0684,0.15045 -0.34726,0.13896 -0.30823,-0.0127 -0.37092,-0.0754 -0.15986,-0.15985 z m -65.587081,-20.91978 -0.641432,-0.7276 0.727605,0.64143 c 0.680055,0.59952 0.848939,0.81378 0.641432,0.81378 -0.04739,0 -0.374814,-0.32743 -0.727605,-0.72761 z m 111.145021,0.0662 c 0.34178,-0.3638 0.68094,-0.66146 0.7537,-0.66146 0.0728,0 -0.14734,0.29766 -0.48911,0.66146 -0.34178,0.3638 -0.68094,0.66146 -0.7537,0.66146 -0.0728,0 0.14734,-0.29766 0.48911,-0.66146 z m -116.838674,-5.75469 -0.504028,-0.59531 0.595312,0.50403 c 0.559447,0.47366 0.715762,0.68659 0.504028,0.68659 -0.05021,0 -0.318097,-0.26789 -0.595312,-0.59531 z m 122.527224,0.0661 c 0.26339,-0.29104 0.53842,-0.52917 0.61118,-0.52917 0.0728,0 -0.0832,0.23813 -0.3466,0.52917 -0.26339,0.29104 -0.53842,0.52916 -0.61118,0.52916 -0.0728,0 0.0832,-0.23812 0.3466,-0.52916 z M 44.080094,167.38383 c 0.0127,-0.30823 0.07539,-0.37092 0.159853,-0.15985 0.07643,0.19099 0.06703,0.4192 -0.02089,0.50711 -0.08792,0.0879 -0.150453,-0.0683 -0.138965,-0.34726 z m 165.099996,0 c 0.0127,-0.30823 0.0754,-0.37092 0.15985,-0.15985 0.0764,0.19099 0.067,0.4192 -0.0209,0.50711 -0.0879,0.0879 -0.15046,-0.0683 -0.13897,-0.34726 z m -165.318744,-3.9467 c 0.0029,-0.58209 0.05712,-0.78906 0.120406,-0.45994 0.06329,0.32912 0.06088,0.80537 -0.0053,1.05833 -0.06622,0.25297 -0.118003,-0.0163 -0.115067,-0.59839 z m 165.629164,0 c 0.003,-0.58209 0.0571,-0.78906 0.12041,-0.45994 0.0633,0.32912 0.0609,0.80537 -0.005,1.05833 -0.0662,0.25297 -0.118,-0.0163 -0.11507,-0.59839 z M 43.861346,156.02879 c 0.0029,-0.58208 0.05712,-0.78905 0.120406,-0.45993 0.06329,0.32912 0.06088,0.80537 -0.0053,1.05833 -0.06622,0.25297 -0.118003,-0.0163 -0.115067,-0.5984 z m 165.629164,0 c 0.003,-0.58208 0.0571,-0.78905 0.12041,-0.45993 0.0633,0.32912 0.0609,0.80537 -0.005,1.05833 -0.0662,0.25297 -0.118,-0.0163 -0.11507,-0.5984 z m -55.52207,-3.10885 -0.50403,-0.59531 0.59531,0.50403 c 0.32743,0.27721 0.59532,0.5451 0.59532,0.59531 0,0.21173 -0.21294,0.0554 -0.6866,-0.50403 z M 44.080094,152.038 c 0.0127,-0.30823 0.07539,-0.37092 0.159853,-0.15986 0.07643,0.191 0.06703,0.4192 -0.02089,0.50712 -0.08792,0.0879 -0.150453,-0.0683 -0.138965,-0.34726 z m 165.099996,0 c 0.0127,-0.30823 0.0754,-0.37092 0.15985,-0.15986 0.0764,0.191 0.067,0.4192 -0.0209,0.50712 -0.0879,0.0879 -0.15046,-0.0683 -0.13897,-0.34726 z m -36.24791,-5.55625 c 0.0127,-0.30823 0.0754,-0.37092 0.15985,-0.15986 0.0764,0.191 0.067,0.4192 -0.0209,0.50712 -0.0879,0.0879 -0.15045,-0.0684 -0.13896,-0.34726 z m -26.35938,-2.82223 -1.04589,-1.12448 1.12448,1.04589 c 1.04576,0.97266 1.24606,1.20307 1.04589,1.20307 -0.0432,0 -0.54925,-0.50601 -1.12448,-1.12448 z m 18.2687,0.0662 c 0.56838,-0.58208 1.09296,-1.05833 1.16572,-1.05833 0.0728,0 -0.33275,0.47625 -0.90114,1.05833 -0.56839,0.58208 -1.09297,1.05833 -1.16573,1.05833 -0.0728,0 0.33276,-0.47625 0.90115,-1.05833 z m -32.57816,-1.85208 c 0,-1.52797 0.0437,-2.15305 0.0972,-1.38907 0.0534,0.76399 0.0534,2.01414 0,2.77813 -0.0534,0.76398 -0.0972,0.1389 -0.0972,-1.38906 z m 41.00916,0.13229 c 8e-4,-1.45521 0.0451,-2.01677 0.0987,-1.24791 0.0536,0.76887 0.0531,1.95949 -10e-4,2.64584 -0.0542,0.68634 -0.0981,0.0573 -0.0974,-1.39793 z m -30.23824,-5.31372 c 0.0127,-0.30822 0.0754,-0.37092 0.15985,-0.15985 0.0764,0.19099 0.067,0.4192 -0.0209,0.50712 -0.0879,0.0879 -0.15045,-0.0684 -0.13896,-0.34727 z m 25.4,0 c 0.0127,-0.30822 0.0754,-0.37092 0.15985,-0.15985 0.0764,0.19099 0.067,0.4192 -0.0209,0.50712 -0.0879,0.0879 -0.15045,-0.0684 -0.13896,-0.34727 z m -25.4,-2.91041 c 0.0127,-0.30823 0.0754,-0.37092 0.15985,-0.15986 0.0764,0.191 0.067,0.4192 -0.0209,0.50712 -0.0879,0.0879 -0.15045,-0.0683 -0.13896,-0.34726 z m 25.4,0 c 0.0127,-0.30823 0.0754,-0.37092 0.15985,-0.15986 0.0764,0.191 0.067,0.4192 -0.0209,0.50712 -0.0879,0.0879 -0.15045,-0.0683 -0.13896,-0.34726 z m -21.98131,-6.85712 c 0.49366,-0.50933 0.95709,-0.92604 1.02985,-0.92604 0.0728,0 -0.27161,0.41671 -0.76526,0.92604 -0.49366,0.50932 -0.95709,0.92604 -1.02985,0.92604 -0.0728,0 0.27161,-0.41672 0.76526,-0.92604 z m 18.50659,-0.0661 -0.91179,-0.99219 0.99218,0.9118 c 0.54571,0.50149 0.99219,0.94798 0.99219,0.99219 0,0.20204 -0.2239,0.0117 -1.07258,-0.9118 z m -26.57638,-1.38906 c 0.71667,-0.72761 1.36256,-1.32292 1.43532,-1.32292 0.0728,0 -0.45407,0.59531 -1.17073,1.32292 -0.71667,0.7276 -1.36256,1.32292 -1.43532,1.32292 -0.0728,0 0.45407,-0.59532 1.17073,-1.32292 z m 28.42847,-1.25677 -0.9118,-0.99219 0.99219,0.9118 c 0.5457,0.50149 0.99218,0.94797 0.99218,0.99219 0,0.20204 -0.22389,0.0117 -1.07257,-0.9118 z m -75.011778,-0.39688 -0.777105,-0.85989 0.859896,0.7771 c 0.801544,0.72437 0.981511,0.94269 0.777105,0.94269 -0.04553,0 -0.432488,-0.38695 -0.859896,-0.8599 z m 62.276408,-0.64376 c 0.191,-0.0764 0.4192,-0.067 0.50712,0.0209 0.0879,0.0879 -0.0684,0.15045 -0.34727,0.13896 -0.30822,-0.0127 -0.37091,-0.0754 -0.15985,-0.15985 z m 3.175,0 c 0.191,-0.0764 0.4192,-0.067 0.50712,0.0209 0.0879,0.0879 -0.0683,0.15045 -0.34727,0.13896 -0.30822,-0.0127 -0.37091,-0.0754 -0.15985,-0.15985 z m -1.05833,-4.23333 c 0.19099,-0.0764 0.4192,-0.067 0.50712,0.0209 0.0879,0.0879 -0.0684,0.15046 -0.34727,0.13897 -0.30822,-0.0127 -0.37092,-0.0754 -0.15985,-0.15985 z m -3.58478,-0.2737 c 0.40219,-0.0608 0.9975,-0.0592 1.32292,0.004 0.32542,0.0628 -0.004,0.11256 -0.73124,0.11058 -0.72761,-0.002 -0.99386,-0.0534 -0.59168,-0.11419 z M 65.358164,103.509 c 0.263389,-0.29104 0.538421,-0.52916 0.611181,-0.52916 0.07276,0 -0.08321,0.23812 -0.346597,0.52916 -0.263389,0.29104 -0.538421,0.52917 -0.611181,0.52917 -0.07276,0 0.08321,-0.23813 0.346597,-0.52917 z m 122.476946,-0.0661 -0.50403,-0.59532 0.59531,0.50403 c 0.32742,0.27722 0.59531,0.54511 0.59531,0.59532 0,0.21173 -0.21293,0.0554 -0.68659,-0.50403 z M 71.046706,97.820461 c 0.341775,-0.363802 0.680939,-0.661458 0.7537,-0.661458 0.07276,0 -0.147341,0.297656 -0.489117,0.661458 -0.341775,0.363802 -0.680939,0.661458 -0.7537,0.661458 -0.07276,0 0.147341,-0.297656 0.489117,-0.661458 z m 111.104974,-0.06615 -0.64143,-0.727604 0.7276,0.641433 c 0.40018,0.352788 0.7276,0.68021 0.7276,0.727604 0,0.207506 -0.21426,0.03862 -0.81377,-0.641433 z M 116.50543,76.869929 c 0.19099,-0.07643 0.4192,-0.06703 0.50712,0.02089 0.0879,0.08792 -0.0684,0.150453 -0.34727,0.138964 -0.30822,-0.01269 -0.37092,-0.07539 -0.15985,-0.159852 z m 20.10833,0 c 0.191,-0.07643 0.4192,-0.06703 0.50712,0.02089 0.0879,0.08792 -0.0684,0.150453 -0.34726,0.138964 -0.30823,-0.01269 -0.37092,-0.07539 -0.15986,-0.159852 z m -17.72708,-0.264583 c 0.19099,-0.07643 0.4192,-0.06703 0.50712,0.02089 0.0879,0.08792 -0.0683,0.150453 -0.34727,0.138964 -0.30822,-0.0127 -0.37092,-0.07539 -0.15985,-0.159852 z m 15.34583,0 c 0.191,-0.07643 0.4192,-0.06703 0.50712,0.02089 0.0879,0.08792 -0.0684,0.150453 -0.34726,0.138964 -0.30823,-0.0127 -0.37092,-0.07539 -0.15986,-0.159852 z m -11.65512,-0.270972 c 0.32912,-0.06329 0.80537,-0.06088 1.05834,0.0053 0.25296,0.06622 -0.0163,0.118003 -0.5984,0.115066 -0.58208,-0.0029 -0.78905,-0.05712 -0.45994,-0.120405 z m 7.40834,0 c 0.32911,-0.06329 0.80536,-0.06088 1.05833,0.0053 0.25297,0.06622 -0.0163,0.118003 -0.5984,0.115066 -0.58208,-0.0029 -0.78905,-0.05712 -0.45993,-0.120405 z"
         id="path894" />
      <path
         style="fill:#000000;stroke-width:0.264583"
         d="m 121.18525,242.94951 c -23.74138,-1.78348 -45.317164,-13.30116 -59.733857,-31.88738 -23.376459,-30.1373 -23.376459,-72.52104 0,-102.65834 12.117443,-15.621994 29.679148,-26.515334 49.018227,-30.405489 5.90493,-1.187807 9.71875,-1.551433 16.27188,-1.551433 6.55312,0 10.36694,0.363626 16.27187,1.551433 19.33908,3.890155 36.90079,14.783495 49.01823,30.405489 23.37646,30.1373 23.37646,72.52104 0,102.65834 -12.11747,15.62202 -29.68296,26.5176 -49.01823,30.40518 -6.77623,1.36244 -15.51934,1.95612 -21.82812,1.4822 z m 17.43783,-7.66681 c 4.73941,-0.72809 10.76114,-2.2712 15.09241,-3.86754 7.17221,-2.6434 15.96452,-7.6137 21.72237,-12.27966 3.38827,-2.74575 8.71002,-8.08907 11.47796,-11.52448 9.42267,-11.69494 15.19159,-25.78793 16.66618,-40.71412 0.36627,-3.70742 0.36627,-10.88504 0,-14.59247 -1.77855,-18.00301 -9.77597,-34.68435 -22.63704,-47.21725 -4.24142,-4.1332 -6.60429,-6.053954 -11.32794,-9.208387 -6.83349,-4.563381 -15.28464,-8.322901 -23.32462,-10.376032 -7.09348,-1.811429 -10.53227,-2.211167 -19.02174,-2.211167 -8.48947,0 -11.92825,0.399738 -19.02173,2.211167 -8.03998,2.053131 -16.491131,5.812651 -23.324628,10.376032 -4.723648,3.154433 -7.086512,5.075187 -11.327934,9.208387 -12.861068,12.5329 -20.858488,29.21424 -22.637047,47.21725 -0.366265,3.70743 -0.366265,10.88505 0,14.59247 1.778559,18.00301 9.775979,34.68435 22.637047,47.21726 4.241422,4.1332 6.604286,6.05395 11.327934,9.20838 10.422239,6.95993 22.579018,11.2081 35.996358,12.57889 0.58209,0.0595 3.97537,0.0718 7.54063,0.0273 4.97269,-0.062 7.33917,-0.21244 10.16179,-0.64606 z m 11.79862,-51.86861 c -4.81016,-4.90741 -9.62775,-8.23283 -14.21196,-9.81003 -3.11908,-1.07312 -7.83104,-1.69825 -12.77554,-1.69491 -5.20826,0.004 -8.04338,0.40056 -13.49375,1.8897 -5.32979,1.45621 -10.229702,4.52581 -15.633592,9.79385 l -2.801305,2.73088 -1.564319,-0.0313 c -0.860375,-0.0172 -1.909451,-0.10651 -2.331273,-0.19844 l -0.766956,-0.16713 1.578933,-1.98621 c 8.260694,-10.39153 24.845142,-16.55314 40.039352,-14.87582 5.7476,0.6345 8.93846,1.43812 12.85655,3.23796 3.86548,1.77567 9.34011,5.80625 12.99097,9.56433 1.23868,1.27507 3.25664,4.23187 3.25664,4.77178 0,0.1177 -0.8632,0.19949 -1.91823,0.18175 L 153.729,186.7882 Z M 61.521706,153.91657 c 0,-0.39351 -0.351924,-1.86519 -0.782054,-3.27038 -1.560437,-5.0978 -2.184836,-10.56726 -1.605592,-14.06427 1.187007,-7.1662 5.644812,-15.58037 9.795979,-18.49005 4.827265,-3.38358 11.490968,-4.35658 17.553437,-2.56305 2.991572,0.88503 3.331628,1.07205 5.786988,3.18263 7.372548,6.33733 11.339976,16.69519 10.304896,26.90327 -0.31887,3.14475 -1.10199,6.44565 -1.81593,7.65426 l -0.41985,0.71074 -16.300084,0.16833 c -8.965044,0.0926 -17.699066,0.23935 -19.408936,0.32617 l -3.108854,0.15784 z m 36.077569,-4.18035 c 0.08338,-0.33222 0.273907,-1.67168 0.423389,-2.97657 0.955953,-8.34495 -0.760579,-16.11268 -4.71202,-21.32306 -3.024248,-3.98778 -8.679598,-6.84487 -13.532688,-6.83673 -3.841748,0.006 -6.259833,1.00459 -9.20155,3.79823 -3.03659,2.88374 -4.7847,5.72902 -6.37661,10.37877 -0.790545,2.30908 -0.826007,2.59512 -0.826007,6.66285 0,3.86582 0.07208,4.52975 0.797017,7.34134 0.43836,1.70013 0.862105,3.19645 0.941657,3.32517 0.08127,0.1315 7.195914,0.23403 16.239925,0.23403 h 16.095284 z m -17.350237,-2.30545 c -5.599006,-0.98352 -9.607383,-5.98407 -9.544653,-11.90718 0.04084,-3.85671 1.720858,-7.27025 4.633352,-9.41431 2.282216,-1.68007 4.107809,-2.294 6.821469,-2.294 2.713659,0 4.539252,0.61393 6.821468,2.294 5.191527,3.82179 6.214502,11.63807 2.211025,16.8939 -2.579806,3.38681 -6.904979,5.13685 -10.942661,4.42759 z m 89.458052,6.93868 -4.92399,-0.0719 0.62336,-1.78024 c 0.34284,-0.97913 0.62387,-1.81 0.62451,-1.84638 5.3e-4,-0.0364 1.42188,-0.0661 3.15832,-0.0661 3.68014,0 3.29082,0.39118 3.85891,-3.87727 0.48495,-3.64369 0.4823,-5.86995 -0.0111,-9.35189 -1.31414,-9.27344 -6.29309,-15.49589 -14.30337,-17.87567 -2.92995,-0.87045 -7.40083,-0.99917 -10.16407,-0.29262 -2.83858,0.72581 -5.7812,2.37549 -8.49307,4.76135 -3.72038,3.27314 -5.53307,6.28616 -7.04278,11.70642 -0.64016,2.29831 -0.73125,3.08948 -0.72887,6.33073 0.002,3.36795 0.36557,6.42808 0.94967,8.00364 l 0.2207,0.59531 h 9.35968 9.35969 l 0.63488,0.84915 c 0.34919,0.46703 1.03569,1.30046 1.52557,1.85208 l 0.89068,1.00294 h -12.44719 -12.44719 l -0.51863,-1.38906 c -2.61908,-7.0149 -2.66314,-13.07375 -0.15103,-20.7694 2.50382,-7.67025 7.69166,-13.38191 14.70559,-16.19043 3.36864,-1.34887 5.27744,-1.70596 9.07709,-1.69809 2.69681,0.006 3.89667,0.13187 5.55625,0.58483 2.62194,0.71563 6.88743,2.79645 8.99583,4.3884 4.10938,3.1028 7.58879,8.73141 9.04873,14.63805 0.64303,2.60156 0.63137,9.98922 -0.0206,13.02737 -0.49866,2.32392 -1.86412,6.81017 -2.21456,7.27604 -0.12369,0.16442 -2.06306,0.23738 -5.12302,0.19274 z m -16.50726,-7.24925 c -2.37741,-0.45009 -4.92247,-1.88322 -6.67903,-3.76098 -1.86308,-1.99164 -2.82326,-3.85952 -3.25324,-6.32859 -1.4057,-8.07214 6.67722,-15.34277 15.08539,-13.56941 2.82523,0.59587 4.63315,1.5695 6.64093,3.57638 4.75239,4.75027 4.82386,11.35373 0.17664,16.32162 -3.02191,3.23043 -7.44041,4.61865 -11.97069,3.76098 z"
         id="path892" />
    </g>
    <path
       style="fill:#ffffff;fill-opacity:1;stroke-width:0.772317;stroke-linecap:round;stroke-linejoin:round;paint-order:stroke markers fill"
       d="m 218.55678,534.54528 c -0.64826,-3.21078 -0.9086,-9.49859 -0.85439,-20.63532 l 0.078,-16.01741 2.53605,-7.48194 c 5.51215,-16.26213 11.31026,-26.16835 21.45498,-36.65636 10.45798,-10.81188 18.0966,-15.2022 29.30019,-16.84038 11.3302,-1.6567 22.76139,0.45394 35.10111,6.48102 22.54013,11.00924 35.98616,31.39668 40.89812,62.01142 0.98392,6.13248 1.68902,31.2031 0.89977,31.99235 -0.15091,0.15092 -8.17891,0.37069 -17.83998,0.4884 l -17.56559,0.214 1.9124,-1.52918 c 1.05181,-0.84105 2.23819,-1.5307 2.63638,-1.53256 0.3982,-0.002 1.60497,-0.92293 2.68172,-2.04681 1.07674,-1.12388 1.75331,-2.04342 1.50346,-2.04342 -0.24984,0 1.07036,-2.33547 2.93378,-5.18994 6.43973,-9.86469 8.97537,-23.42537 6.54396,-34.99736 -4.08154,-19.42554 -20.3781,-33.93912 -39.51804,-35.19442 -11.57074,-0.75887 -21.50714,2.36059 -30.53113,9.58504 -17.84218,14.28413 -21.51678,42.43988 -8.08642,61.96023 1.158,1.6831 2.10546,3.24725 2.10546,3.4759 0,0.99019 3.0677,4.44739 3.94633,4.44739 0.53106,0 1.7855,0.68966 2.78763,1.53257 l 1.82205,1.53256 H 242.8475 c -11.25031,0 -21.10833,0.23898 -21.90673,0.53107 -1.34297,0.49132 -1.52141,0.18541 -2.38399,-4.08685 z"
       id="path1080"
       transform="scale(0.26458333)" />
    <path
       style="fill:#ffffff;fill-opacity:1;stroke-width:0.772317;stroke-linecap:round;stroke-linejoin:round;paint-order:stroke markers fill"
       d="m 614.8655,533.69298 -15.5301,-0.3599 2.75872,-2.69252 c 1.51729,-1.48088 2.75872,-2.95822 2.75872,-3.28297 0,-0.32476 0.8783,-1.87175 1.9518,-3.43775 11.00413,-16.05292 10.99244,-33.93367 -0.0327,-50.01628 -1.09151,-1.59216 -1.75146,-2.89484 -1.46657,-2.89484 0.28488,0 -0.99155,-1.53257 -2.83652,-3.40571 -1.84497,-1.87313 -3.58865,-3.4057 -3.87485,-3.4057 -0.28619,0 -2.57469,-1.37777 -5.08555,-3.06172 -4.73032,-3.17246 -9.47642,-5.23031 -15.04778,-6.52453 -1.7806,-0.41363 -3.69722,-0.90785 -4.25916,-1.09828 -0.56194,-0.19043 -4.08684,-0.33641 -7.83311,-0.3244 -7.67513,0.0246 -14.99541,1.62528 -20.87976,4.56562 -5.96286,2.97957 -13.90578,8.43903 -15.64201,10.75134 -4.27396,5.69204 -8.07235,12.52758 -9.44225,16.99218 -0.83092,2.70804 -1.67553,5.38347 -1.8769,5.94541 -0.52038,1.45214 -0.60687,14.30363 -0.0963,14.30381 0.23309,8e-5 0.62703,1.27113 0.87544,2.82454 0.6173,3.8604 2.84157,8.99544 5.96492,13.77088 1.43681,2.1968 2.61237,4.17861 2.61237,4.40402 0,0.22541 1.44442,1.87631 3.20982,3.66865 l 3.20981,3.25882 h -28.14369 -28.14368 l 0.30528,-13.11196 c 0.29371,-12.61491 0.39758,-13.42285 2.74014,-21.31352 5.00849,-16.87061 10.95223,-27.53521 20.95862,-37.60514 3.07117,-3.09067 5.87991,-5.61941 6.24163,-5.61941 0.36173,0 1.96533,-1.30268 3.56355,-2.89485 3.69676,-3.68273 13.33158,-9.41966 20.43302,-12.16657 20.12463,-7.78441 47.13777,-4.14202 66.54764,8.97314 14.75091,9.96712 26.24958,27.72522 30.18476,46.61615 0.6243,2.99702 1.4281,6.76534 1.78622,8.37404 0.35811,1.60871 0.45393,3.71058 0.21292,4.67081 -0.2439,0.97177 -0.12161,1.94155 0.27579,2.18715 1.3487,0.83354 1.33045,22.65955 -0.0187,22.42035 -0.46828,-0.083 -7.83997,-0.31291 -16.38153,-0.51086 z"
       id="path1119"
       transform="scale(0.26458333)" />
  </g>
</svg>
